<?xml version="1.0" encoding="UTF-8"?>
<svg id="Camada_2" xmlns="http://www.w3.org/2000/svg" xmlns:xlink="http://www.w3.org/1999/xlink" viewBox="0 0 1256.91 301">
  <defs>
    <style>
      .cls-1 {
        fill: url(#New_Gradient_Swatch);
        fill-rule: evenodd;
      }

      .cls-2 {
        fill: #fefffe;
      }

      .cls-3 {
        fill: #f5031e;
      }
    </style>
    <linearGradient id="New_Gradient_Swatch" data-name="New Gradient Swatch" x1="55.12" y1="168.08" x2="245.88" y2="168.08" gradientUnits="userSpaceOnUse">
      <stop offset=".12" stop-color="#f2040c"/>
      <stop offset=".15" stop-color="#f20d0b"/>
      <stop offset=".19" stop-color="#f22609"/>
      <stop offset=".25" stop-color="#f25007"/>
      <stop offset=".32" stop-color="#f28903"/>
      <stop offset=".39" stop-color="#f2c600"/>
      <stop offset=".55" stop-color="#f5f4f2"/>
      <stop offset=".67" stop-color="#fefffe"/>
      <stop offset=".73" stop-color="#05bbf5"/>
      <stop offset=".99" stop-color="#0500c8"/>
    </linearGradient>
  </defs>
  <g id="Layer_1">
    <g>
      <g>
        <rect x="0" width="301" height="301" rx="86.07" ry="86.07"/>
        <g>
          <g>
            <path class="cls-2" d="M144.81,120.93c12.97,0,22.69,9.72,22.69,22.69,0-12.97,9.72-22.69,22.69-22.69-12.97,0-22.69-9.72-22.69-22.69,0,12.97-9.72,22.69-22.69,22.69Z"/>
            <path class="cls-2" d="M135.92,125.76c-7.17,0-12.55-5.38-12.55-12.55,0,7.17-5.38,12.55-12.55,12.55,7.17,0,12.55,5.38,12.55,12.55,0-7.17,5.38-12.55,12.55-12.55Z"/>
            <path class="cls-2" d="M149.43,70.93c11.31,0,19.79,8.48,19.79,19.79,0-11.31,8.48-19.79,19.79-19.79-11.31,0-19.79-8.48-19.79-19.79,0,11.31-8.48,19.79-19.79,19.79Z"/>
          </g>
          <path class="cls-1" d="M222.7,123.95l-70.18,40.53c-1.28.74-2.74.74-4.02,0l-70.19-40.53c-1.28-.74-2.01-2-2.01-3.48s.73-2.74,2.01-3.48l31.75-18.32c1.21-.7,1.96-1.99,1.96-3.39v-4.15c0-3.02-3.26-4.9-5.88-3.39l-47.67,27.52c-1.98.9-3.36,2.9-3.36,5.21v19.24l.03,51.76c0,1.97,1.03,3.89,2.86,4.95l89.57,51.72c1.72,1.02,3.93,1.1,5.79.03l89.15-51.49c1.98-.91,3.35-2.9,3.35-5.22v-51.76c0-6.44.04-12.93-.03-19.33v-.04c-.04-2.03-1.15-3.8-2.86-4.81l-48.12-27.79c-2.61-1.51-5.88.38-5.88,3.39v4.14c0,1.4.75,2.69,1.96,3.39l31.74,18.32c1.28.74,2.01,2.01,2.01,3.48s-.73,2.74-2,3.48Z"/>
        </g>
      </g>
      <g>
        <g>
          <path d="M985.46,191.83c-.73-.43-.66-1.31-.71-2.1.36-26.07-.72-85.1.38-99.78.53-.69,2.3-.7,3.45-.72,6.19-.04,24.07,0,34.79-.02,10.97-.08,21.31-.07,31.64,3.9,6.96,2.7,13.14,7.67,15.88,14.38,3.21,7.72,2.2,17.45-3.41,23.8-1.57,1.95-5.92,5.09-5.52,6.61.05.47.34.84.69,1.18,1.56,1.44,6.44,3.51,8.88,6.25,6.72,6.8,8.1,17.81,5.13,26.67-2.63,7.74-9.47,13.39-17.32,16.34-10.71,3.96-21.66,3.92-32.92,3.87-13.32-.33-30.61.63-40.91-.37l-.05-.03ZM1008.1,130.66c1.02,1,3.45.9,7.09.89,2.5-.02,5.08-.03,7.59-.05,8.39-.25,14.83.68,21.95-2.98,5.82-3.04,7.31-11.38,3.07-16.33-2.72-3.35-7.68-4.67-11.69-5.14-6.28-.64-12.72-.27-19.18-.37-2.12.01-4.12-.05-6.13.11-2.66.21-3.47,1.14-3.64,3.88-.18,4.46-.04,9.46-.08,13.9.02,3.07.02,5.08.94,6l.08.08ZM1008.04,173.8c1.01,1.06,3.5.92,7.4.94,3.59,0,7.29,0,10.88,0,8.63-.21,15.02.78,22.61-2.57,6.78-2.97,8.54-12.46,3.66-17.88-3.11-3.64-8.8-4.93-13.14-5.3-7.82-.51-16.03-.15-24.01-.26-3.42.17-8.39-.96-8.26,3.75-.21,4.82-.04,10.33-.09,15.11.02,3.14.01,5.18.88,6.12l.07.07Z"/>
          <path d="M1087.4,155.09c-1.98-29.11,15.38-46.31,44.56-43.68,15.73.92,29.48,11.05,32.81,26.81,4.39,21.59-.66,46.07-23.89,53.58-27.4,7.78-52.86-6.45-53.47-36.5v-.21ZM1126.9,175.56c17.26-.15,19.08-19.63,16.52-32.86-1.16-5.43-3.99-9.94-9.08-11.88-8.54-3.22-20.16-.82-23.11,8.81-1.53,4.17-1.83,9.34-1.74,14.09-.14,11.03,4.91,21.85,17.2,21.84h.21Z"/>
          <path d="M1167.66,191.61c-1.03-.72.87-2.63,3.62-6.04,7.83-9.54,16.93-20.48,24.83-30.19,2.09-2.66,2.08-3.55-.03-6.24-1.44-1.83-2.92-3.56-4.49-5.48-6.32-7.65-13.96-16.92-20.06-24.3-3.83-4.83-6.13-6.39.12-6.5,4.39-.07,9.73-.06,14.25-.02,4.83-.14,8.11,1.09,11,4.9,19.04,22.16,11.71,21.68,30.54-.17,3.1-3.99,6.16-4.76,10.63-4.73,4.5-.06,9.76-.05,14.16,0,6.78.07,4.56,1.52.13,7-6.2,7.47-13.62,16.42-19.97,24.07-1.5,1.83-2.94,3.5-4.32,5.25-2.11,2.67-2.11,3.55-.01,6.21,5.7,7,11.75,14.2,17.55,21.24,2.76,3.34,5.36,6.47,7.41,8.95,2.53,3.1,4.33,4.99,3.79,5.82-.33.56-1.7.74-4,.8-3.59.06-8.16.04-11.91.04-4.73.02-9.38.16-12.42-3.82-4.22-4.86-8.68-10.81-12.78-15.62-2.93-3.44-4.28-3.32-7.26.1-3.85,4.46-8.17,9.91-12.08,14.49-3.65,4.92-7.89,4.91-13.22,4.85-4.54-.24-11.52.59-15.43-.58l-.06-.04Z"/>
        </g>
        <g>
          <path d="M456.8,157.8c1.47,2.58-.09,5.99-.93,8.68-2.59,7.25-7.05,13.75-13.11,18.28-9.81,7.44-22.25,9.62-34.43,8.88-25.47-1.01-41.06-18.97-42-43.91-.4-10.87-.71-22.11,2.42-32.64,5.05-18.35,21.72-29.28,40.29-29.62,20.53-1.43,40.32,7.45,47.05,27.97,1.29,3.61,2.77,8.85-2.36,9.82-3.76.77-9.69.94-13.77-.53-3.11-1.18-4.51-3.78-6.1-6.86-5.03-11.72-20.29-14.22-31.22-9.99-7.64,3-12.04,10.64-13.2,18.54-.91,5.42-.88,11.89-.81,17.81-.18,11.66,2.84,25.64,15.41,29.56,8.4,2.55,19.26,1.84,25.77-4.62,3.71-3.43,4.79-9.52,8.84-11.95,3.49-2.17,15.52-2.81,18.09.47l.07.11Z"/>
          <path d="M471.71,191.98c-.85-.28-1.16-.96-1.23-1.79-.12-1.87-.03-5.5-.06-10.28,0-5.57,0-12.64,0-20.09.02-18.08-.04-38.31.03-44.37.05-.89.16-1.66.96-2.11,3.8-1.18,8.9-.48,13.36-.6,2.16.08,3.87.41,4.96,1.29,1.92,1.49,1.93,4.54,2.7,5.81,1.4,2.24,4.6-1.72,6.17-2.54,3.89-2.83,8.76-4.27,13.6-4.9,9.73-1.82,8.94,5.96,8.58,13.17-.34,6.72-6.06,5.37-11.29,6.43-11.6,1.96-16.32,11.35-16.92,22.09-.59,11.08.31,25.03-.41,35.46-.77,4-6.76,2.53-10.11,2.87-3.14-.03-7.94.19-10.26-.43l-.09-.03Z"/>
          <path d="M549.53,159.44c-.5,3.66,2.36,9.27,5.3,11.99,5.09,4.89,14.2,5.85,21.11,3.6,4.53-1.54,6.7-5.68,11.02-7.05,3.75-1.13,8.19-1.16,11.99-.47,5.67.94,4.07,6.47,2.21,10.19-2.67,5.66-7.54,9.98-12.92,12.3-7.5,3.37-18.89,4.37-27.55,3.42-22.16-2.22-33.68-20.39-33.12-41.54-.92-27.21,16.55-42.85,43.58-40.59,15.79.72,29.97,9.04,32.93,25.37.95,4.73,1.09,10.91.91,15.21-.16,1.94-.32,4.51-2.53,5.08-9.87.68-36.37.04-48.04.26-1.88.06-4.36.02-4.88,2.14l-.02.11ZM583.67,142.43c.75-4.04-2.9-9.86-6.6-12.06-6.89-4.02-18.19-3.94-23.96,2.13-2.4,2.77-5.44,7.97-3.72,10.6,1.39,1.27,3.32,1,5.28,1.09,3.46,0,7.22,0,10.91,0,3.67,0,7.37,0,10.42,0,4.21-.1,6.61.37,7.64-1.66l.04-.11Z"/>
          <path d="M616.66,136.44c-2.71-5.27,3.8-14.44,8.02-17.66,7.8-6.57,20.98-8.32,31.77-7.51,12.89.68,25.74,6.21,29.94,18.62,2.75,8.23,2.11,12.47,2.21,22.25,0,7.24,0,17.21,0,25.23-.18,5.87.41,9.16-.35,13.05-1.14,2.68-4.88,1.94-7.32,2.18-5.19-.03-10.38.64-12.73-4.18-.64-1.08-1.19-2.13-2.58-2.07-2.52.29-8.29,4.74-12.23,5.58-11.41,3.6-25.67,2.71-34.2-6.46-7.68-8.33-7.94-23.1.03-31.33,7.28-7.58,18.06-9.22,28.21-9.33,5.6-.35,12.44.73,17.32-.99,4.38-1.78,2.13-7.96-.87-10.96-3.87-3.73-10.2-4.45-16.13-3.95-3.07.3-6.23,1.39-8.48,3.44-2.56,2.38-4.84,5.15-8.46,5.84-4.43.76-11.22,1.37-14.06-1.64l-.08-.11ZM667.64,160.85c-.82-1.22-2.97-1.58-6.07-1.6-2.7-.02-5.53,0-8.24,0-6.02.05-10.26-.17-14.01,2.14-3.42,1.94-5.07,6.39-3.62,10.07,1.64,4.38,6.74,5.91,11.07,5.82,7.77-.16,16.28-3.08,19.97-10.11.89-1.82,2-4.42.97-6.21l-.07-.1Z"/>
          <path d="M708.54,111.35c4.06-3.79-.66-16.47,3.76-19.86,1.64-.99,3.8-.95,5.73-1.02,3.06-.01,6.71-.1,9.19.15,2.7.13,4.59,1.69,4.73,4.54.36,3.16.11,7.65.25,10.88.17,3.21.39,5.42,3.19,6.28,3.79,1.02,10.25.03,13.92.93,4.79,1.1,3.84,7.45,3.7,11.2-.46,6.46-6.2,5.26-11.44,5.44-4.96.3-9.06-.94-9.34,4.4-.19,6.74-.02,15.02-.08,22.03.09,5.39-.61,12.13,2.17,14.51,2.8,2.78,7.3,2.51,10.93,2.58,6.48-.02,5.95,8.54,4.75,13.37-.87,3.01-3.17,4.58-6.45,5.25-13.05,2.91-29.99,1.07-32.55-14.61-1.16-6.12-.76-9.66-.85-17.63,0-6.57,0-13.64,0-20.13-.3-4.19,1.07-7.94-2.72-9.24-3.2-1-7.81.21-10.48-2.39-2.21-2.47-2.26-9-.64-12.47,2.48-4.15,8.78-1.57,12.13-4.11l.11-.09Z"/>
          <path d="M765.26,191.74c-.91-.3-1.13-1.07-1.17-1.94-.06-2.58-.01-8.22-.03-15.37,0-10.6,0-24.61,0-36.19,0-7.14,0-13.95,0-20.92.03-2.9-.25-4.06,2.26-4.38,1.49-.19,2.97-.18,4.57-.2,3.77.02,9.06-.11,12.49.15,2.11.22,2.56.81,2.63,2.31.07,9.69.01,60.89.03,73.34.17,2.86-.72,3.48-3.76,3.55-3.51.03-13.76.38-16.94-.32l-.09-.03Z"/>
          <path d="M829.95,191.75c-1.5-.39-1.97-1.24-2.58-2.53-5.24-11.85-28.43-62.61-33.56-74.71-.78-2.48,5.67-1.54,8-1.77,3.3,0,7.03-.03,9.59.06,3.75,0,5.7.88,6.93,4.27,3.07,6.93,10.67,24.23,15.82,35.92,2.29,5.14,3.97,9.18,4.84,10.81.73,1.48,1.34.7,1.88-.43,5.84-12.7,16.94-38.22,21.44-47.78,1.3-2.59,3.45-2.68,6.44-2.81,2.73-.08,6.75-.04,10.05-.05,2.61.23,8.33-.72,6.8,2.34-4.32,9.52-28.53,61.64-34.1,73.72-1.06,3.1-3.46,3.29-6.83,3.32-4.67-.07-10.16.36-14.6-.35l-.11-.03Z"/>
          <path d="M907.99,159.44c-.5,3.66,2.36,9.27,5.3,11.99,5.09,4.89,14.2,5.85,21.11,3.6,4.53-1.54,6.7-5.68,11.02-7.05,3.75-1.13,8.19-1.16,11.99-.47,5.67.94,4.07,6.47,2.21,10.19-2.67,5.66-7.54,9.98-12.92,12.3-7.5,3.37-18.89,4.37-27.55,3.42-22.16-2.22-33.68-20.39-33.12-41.54-.92-27.21,16.56-42.85,43.58-40.59,15.79.72,29.97,9.04,32.93,25.37.95,4.73,1.09,10.91.91,15.21-.16,1.94-.32,4.51-2.53,5.08-9.87.68-36.37.04-48.04.26-1.88.06-4.36.02-4.88,2.14l-.02.11ZM942.13,142.43c.75-4.04-2.9-9.86-6.6-12.06-6.89-4.02-18.19-3.94-23.96,2.13-2.4,2.77-5.44,7.97-3.72,10.6,1.39,1.27,3.32,1,5.28,1.09,3.46,0,7.22,0,10.91,0,3.67,0,7.37,0,10.42,0,4.21-.1,6.61.37,7.64-1.66l.04-.11Z"/>
          <path class="cls-3" d="M765.36,99.49c-.91-.07-1.13-.24-1.17-.44-.06-.59-.01-1.88-.03-3.52,0-2.43,0-5.63,0-8.29,0-1.64,0-3.19,0-4.79.03-.66-.25-.93,2.26-1,1.49-.04,2.97-.04,4.57-.05,3.77,0,9.06-.03,12.49.03,2.11.05,2.56.19,2.63.53.07,2.22.01,13.94.03,16.79.17.65-.72.8-3.76.81-3.51,0-13.76.09-16.94-.07h-.09Z"/>
        </g>
      </g>
    </g>
  </g>
</svg>